<svg xmlns="http://www.w3.org/2000/svg" width="31.561" height="21.007" viewBox="0 0 31.561 21.007">
  <g id="_253fba5f3dd613e92f8536852b1fd296" data-name="253fba5f3dd613e92f8536852b1fd296" transform="translate(0 -4.025)">
    <path id="Path_20" data-name="Path 20" d="M15.78,17.132A.483.483,0,0,1,15.386,17L.921,11.745a1.22,1.22,0,0,1,0-2.365L15.386,4.124a1.124,1.124,0,0,1,.92,0L30.771,9.38a1.331,1.331,0,0,1,.789,1.183,1.262,1.262,0,0,1-.921,1.183L16.175,17A.483.483,0,0,1,15.78,17.132ZM5.129,10.562,15.78,14.373l10.652-3.811L15.78,6.752Z" transform="translate(0 0)" fill="#fca318"/>
    <path id="Path_21" data-name="Path 21" d="M21.512,23.123h-9.2a1.314,1.314,0,1,1,0-2.628H20.2a17.212,17.212,0,0,0-2.234-8.41A1.33,1.33,0,1,1,20.2,10.64a21.1,21.1,0,0,1,2.628,11.038,1.281,1.281,0,0,1-1.314,1.445Z" transform="translate(3.472 1.91)" fill="#fca318"/>
    <path id="Path_22" data-name="Path 22" d="M14.512,23.768h-9.2A1.241,1.241,0,0,1,4,22.454,21.1,21.1,0,0,1,6.628,11.416a1.33,1.33,0,0,1,2.234,1.445,17.212,17.212,0,0,0-2.234,8.41h7.884a1.241,1.241,0,0,1,1.314,1.314C15.826,23.374,15.3,23.768,14.512,23.768Zm13.14,0a1.241,1.241,0,0,1-1.314-1.314V9.314a1.314,1.314,0,1,1,2.628,0v13.14A1.241,1.241,0,0,1,27.652,23.768Z" transform="translate(1.28 1.264)" fill="#fca318"/>
  </g>
</svg>
