<svg id="Component_18_26" data-name="Component 18 – 26" xmlns="http://www.w3.org/2000/svg" xmlns:xlink="http://www.w3.org/1999/xlink" width="71" height="71" viewBox="0 0 71 71">
  <defs>
    <clipPath id="clip-path">
      <circle id="Ellipse_41" data-name="Ellipse 41" cx="35.5" cy="35.5" r="35.5" transform="translate(22923 4924)" fill="#fff"/>
    </clipPath>
  </defs>
  <g id="Mask_Group_4" data-name="Mask Group 4" transform="translate(-22923 -4924)" clip-path="url(#clip-path)">
    <g id="Group_195" data-name="Group 195" transform="translate(213)">
      <circle id="Ellipse_32" data-name="Ellipse 32" cx="35.5" cy="35.5" r="35.5" transform="translate(22710 4924)" fill="#fff"/>
      <circle id="Ellipse_34" data-name="Ellipse 34" cx="35.5" cy="35.5" r="35.5" transform="translate(22817 4924)" fill="#fff"/>
      <circle id="Ellipse_35" data-name="Ellipse 35" cx="35.5" cy="35.5" r="35.5" transform="translate(22604 4924)" fill="#fff"/>
      <path id="Path_41" data-name="Path 41" d="M119.707,404.85A35.506,35.506,0,0,0,84.17,440.321c0,15.032,22.576,33.045,22.576,33.045l2.357.908s6.843,1.575,10.531,1.575a35.5,35.5,0,0,0,.074-71Z" transform="translate(22412.83 4519.15)" fill="#f6b32f"/>
      <circle id="Ellipse_36" data-name="Ellipse 36" cx="35.5" cy="35.5" r="35.5" transform="translate(22284 4924)" fill="#fff"/>
      <circle id="Ellipse_37" data-name="Ellipse 37" cx="35.5" cy="35.5" r="35.5" transform="translate(22178 4924)" fill="#fff"/>
      <ellipse id="Ellipse_38" data-name="Ellipse 38" cx="36" cy="35.5" rx="36" ry="35.5" transform="translate(22070 4924)" fill="#fff"/>
      <path id="Path_36" data-name="Path 36" d="M155.17,243.448a35.5,35.5,0,1,0-41.049,35.066V253.708h-9.014v-10.26h9.014v-7.82c0-8.9,5.3-13.81,13.411-13.81a54.486,54.486,0,0,1,7.947.694v8.735H131c-4.407,0-5.785,2.735-5.785,5.543v6.658h9.845l-1.573,10.26h-8.273v24.806A35.509,35.509,0,0,0,155.17,243.448Z" transform="translate(22838.83 4716.05)" fill="#fff"/>
      <circle id="Ellipse_39" data-name="Ellipse 39" cx="35.5" cy="35.5" r="35.5" transform="translate(22391 4924)" fill="#fff"/>
      <g id="Group_194" data-name="Group 194">
        <g id="Group_123" data-name="Group 123" transform="translate(22723.219 4936.907)">
          <g id="Group_122" data-name="Group 122">
            <path id="Path_25" data-name="Path 25" d="M580.089,237.017c6.034,0,6.746.021,9.128.133a12.569,12.569,0,0,1,4.194.776,7.48,7.48,0,0,1,4.29,4.29,12.57,12.57,0,0,1,.776,4.194c.106,2.382.133,3.1.133,9.128s-.021,6.746-.133,9.128a12.569,12.569,0,0,1-.776,4.194,7.48,7.48,0,0,1-4.29,4.29,12.569,12.569,0,0,1-4.194.776c-2.382.106-3.094.133-9.128.133s-6.746-.021-9.128-.133a12.568,12.568,0,0,1-4.194-.776,7.479,7.479,0,0,1-4.29-4.29,12.567,12.567,0,0,1-.776-4.194c-.106-2.382-.133-3.1-.133-9.128s.021-6.746.133-9.128a12.567,12.567,0,0,1,.776-4.194,7.479,7.479,0,0,1,4.29-4.29,12.567,12.567,0,0,1,4.194-.776c2.382-.106,3.094-.133,9.128-.133m0-4.067c-6.135,0-6.906.027-9.314.138a16.54,16.54,0,0,0-5.486,1.053,11.177,11.177,0,0,0-4,2.6,11.017,11.017,0,0,0-2.6,4,16.616,16.616,0,0,0-1.053,5.486c-.112,2.408-.138,3.179-.138,9.314s.027,6.906.138,9.314a16.539,16.539,0,0,0,1.053,5.486,11.175,11.175,0,0,0,2.6,4,11.017,11.017,0,0,0,4,2.6,16.619,16.619,0,0,0,5.486,1.053c2.408.112,3.179.138,9.314.138s6.906-.027,9.314-.138a16.54,16.54,0,0,0,5.486-1.053,11.178,11.178,0,0,0,4-2.6,11.018,11.018,0,0,0,2.6-4,16.619,16.619,0,0,0,1.053-5.486c.112-2.408.138-3.179.138-9.314s-.027-6.906-.138-9.314a16.541,16.541,0,0,0-1.053-5.486,11.177,11.177,0,0,0-2.6-4,11.017,11.017,0,0,0-4-2.6,16.618,16.618,0,0,0-5.486-1.053c-2.408-.117-3.179-.138-9.314-.138Z" transform="translate(-557.49 -232.95)" fill="#f6b32f"/>
            <path id="Path_26" data-name="Path 26" d="M589.78,253.62a11.6,11.6,0,1,0,11.6,11.6A11.6,11.6,0,0,0,589.78,253.62Zm0,19.133a7.533,7.533,0,1,1,7.533-7.533A7.534,7.534,0,0,1,589.78,272.753Z" transform="translate(-567.181 -242.632)" fill="#f6b32f"/>
            <circle id="Ellipse_33" data-name="Ellipse 33" cx="2.711" cy="2.711" r="2.711" transform="translate(31.95 7.82)" fill="#f6b32f"/>
          </g>
        </g>
        <g id="Group_126" data-name="Group 126" transform="translate(22830.961 4936.008)">
          <g id="WA_Logo_10_">
            <g id="Group_125" data-name="Group 125">
              <path id="Path_27" data-name="Path 27" d="M822.232,237.932a22.764,22.764,0,0,0-35.825,27.458L783.18,277.18l12.068-3.163a22.734,22.734,0,0,0,10.877,2.77h.011a22.761,22.761,0,0,0,16.1-38.855Zm-16.108,35.012h-.005a18.872,18.872,0,0,1-9.627-2.637l-.691-.409-7.161,1.877,1.914-6.98-.452-.718a18.92,18.92,0,1,1,16.023,8.867Zm10.382-14.167c-.569-.287-3.365-1.659-3.886-1.85s-.9-.287-1.281.287-1.467,1.85-1.8,2.227-.664.425-1.233.144a15.481,15.481,0,0,1-4.572-2.823,17.124,17.124,0,0,1-3.163-3.939c-.33-.569-.037-.877.25-1.159.255-.255.569-.665.851-.994a4,4,0,0,0,.569-.946,1.034,1.034,0,0,0-.048-.994c-.144-.287-1.281-3.083-1.754-4.221-.462-1.111-.93-.957-1.281-.978-.33-.016-.712-.021-1.09-.021a2.092,2.092,0,0,0-1.515.712,6.378,6.378,0,0,0-1.988,4.742c0,2.8,2.036,5.5,2.323,5.88s4.008,6.124,9.718,8.586a32.551,32.551,0,0,0,3.243,1.2,7.794,7.794,0,0,0,3.583.223c1.1-.165,3.365-1.377,3.838-2.706a4.744,4.744,0,0,0,.33-2.706C817.453,259.2,817.076,259.063,816.507,258.776Z" transform="translate(-783.18 -231.26)" fill="#f6b32f" fill-rule="evenodd"/>
            </g>
          </g>
        </g>
        <g id="Group_129" data-name="Group 129" transform="translate(22617.654 4942.419)">
          <g id="Group_128" data-name="Group 128">
            <path id="Path_28" data-name="Path 28" d="M1021.823,281.064c17.527,0,27.112-14.518,27.112-27.112,0-.415-.011-.824-.027-1.233a19.411,19.411,0,0,0,4.753-4.933,18.908,18.908,0,0,1-5.47,1.5,9.567,9.567,0,0,0,4.189-5.268,19.073,19.073,0,0,1-6.05,2.313,9.534,9.534,0,0,0-16.485,6.518,9.774,9.774,0,0,0,.245,2.174,27.029,27.029,0,0,1-19.638-9.957,9.533,9.533,0,0,0,2.95,12.721,9.491,9.491,0,0,1-4.317-1.191v.122a9.531,9.531,0,0,0,7.645,9.34,9.547,9.547,0,0,1-4.3.165,9.542,9.542,0,0,0,8.9,6.619,19.259,19.259,0,0,1-14.109,3.945,26.985,26.985,0,0,0,14.6,4.279" transform="translate(-1007.22 -243.32)" fill="#f6b32f"/>
          </g>
        </g>
        <path id="Path_29" data-name="Path 29" d="M119.707,404.85a35.472,35.472,0,0,0-12.961,68.517c-.321-2.8-.584-7.125.116-10.186.642-2.772,4.155-17.631,4.155-17.631a12.914,12.914,0,0,1-1.052-5.256c0-4.935,2.867-8.611,6.433-8.611,3.04,0,4.5,2.279,4.5,4.993,0,3.035-1.93,7.592-2.956,11.824a5.161,5.161,0,0,0,5.265,6.421c6.317,0,11.172-6.657,11.172-16.229,0-8.5-6.112-14.423-14.86-14.423-10.12,0-16.059,7.561-16.059,15.383a13.826,13.826,0,0,0,2.63,8.086,1.048,1.048,0,0,1,.231,1.024c-.263,1.108-.878,3.534-.994,4.027-.147.641-.526.788-1.2.467-4.445-2.074-7.222-8.526-7.222-13.751,0-11.183,8.132-21.458,23.486-21.458,12.314,0,21.908,8.758,21.908,20.492,0,12.233-7.722,22.067-18.426,22.067-3.6,0-6.991-1.869-8.132-4.085,0,0-1.783,6.773-2.225,8.437a38.7,38.7,0,0,1-4.418,9.314,35.515,35.515,0,1,0,10.6-69.425Z" transform="translate(22412.83 4519.15)" fill="#fff"/>
        <g id="Group_134" data-name="Group 134" transform="translate(22298.648 4936.694)">
          <g id="Group_133" data-name="Group 133">
            <path id="Path_30" data-name="Path 30" d="M821.943,459.278c.59-.664,1.074-1.334,1.68-1.9a9.22,9.22,0,0,1,6.635-2.616,15.277,15.277,0,0,1,4.168.505,8.156,8.156,0,0,1,5.789,6.087,25.492,25.492,0,0,1,.771,6.975c.011,4.955-.016,9.915-.005,14.869,0,.462-.128.585-.585.585q-3.828-.032-7.66,0c-.452.005-.548-.133-.548-.558q.024-7.073,0-14.151a12.863,12.863,0,0,0-.409-3.514,3.951,3.951,0,0,0-4.343-3.078c-3.03.159-4.6,1.659-4.992,4.737a17.088,17.088,0,0,0-.133,2.212c.005,4.588-.005,9.176.011,13.763,0,.457-.112.59-.579.59q-3.859-.032-7.719,0c-.415.005-.532-.106-.532-.526q.016-13.62,0-27.245c0-.452.149-.553.574-.553,2.44.016,4.885.021,7.326,0,.452-.005.563.144.558.569C821.927,457.1,821.943,458.189,821.943,459.278Z" transform="translate(-798.451 -441.363)" fill="#f6b32f"/>
            <path id="Path_31" data-name="Path 31" d="M795.3,470.255c0,4.492-.005,8.984.011,13.476,0,.5-.122.649-.638.643-2.552-.027-5.1-.021-7.66-.005-.409.005-.532-.1-.532-.521q.016-13.644,0-27.293c0-.377.09-.51.489-.51,2.589.016,5.178.021,7.767-.005.5-.005.563.186.563.617Q795.292,463.467,795.3,470.255Z" transform="translate(-785.8 -441.963)" fill="#f6b32f"/>
            <path id="Path_32" data-name="Path 32" d="M795.4,434.637a5.1,5.1,0,1,1-5.093-5.077A5.112,5.112,0,0,1,795.4,434.637Z" transform="translate(-785.2 -429.56)" fill="#f6b32f"/>
          </g>
        </g>
        <g id="Group_137" data-name="Group 137" transform="translate(22187.322 4932.919)">
          <g id="Group_136" data-name="Group 136">
            <path id="Path_33" data-name="Path 33" d="M1024.542,814.64a26.583,26.583,0,1,0,26.213,26.581A26.408,26.408,0,0,0,1024.542,814.64Zm17.316,12.248a22.783,22.783,0,0,1,5.059,14.125,52.139,52.139,0,0,0-15.581-.723c-.173-.372-.314-.776-.482-1.18-.456-1.1-.965-2.222-1.478-3.285C1037.622,832.428,1041.371,827.526,1041.858,826.888Zm-17.316-8.33a22.167,22.167,0,0,1,14.842,5.709c-.4.574-3.78,5.162-11.743,8.187a123.874,123.874,0,0,0-8.357-13.29A22.437,22.437,0,0,1,1024.542,818.558Zm-9.526,2.137a143.863,143.863,0,0,1,8.3,13.115,83.043,83.043,0,0,1-20.7,2.77A22.736,22.736,0,0,1,1015.017,820.7Zm-12.876,20.552v-.691a80.763,80.763,0,0,0,23-3.227c.655,1.271,1.253,2.568,1.819,3.865-.283.085-.6.175-.881.26-11.544,3.774-17.683,14.1-18.2,14.965A22.853,22.853,0,0,1,1002.141,841.247Zm22.4,22.689a22.029,22.029,0,0,1-13.73-4.784c.4-.835,4.949-9.718,17.568-14.183.058-.026.084-.026.142-.058a94.679,94.679,0,0,1,4.776,17.214A21.779,21.779,0,0,1,1024.542,863.936Zm12.482-3.891a98.315,98.315,0,0,0-4.351-16.172,32.392,32.392,0,0,1,13.929.978A22.519,22.519,0,0,1,1037.025,860.045Z" transform="translate(-998.33 -814.64)" fill="#f6b32f" fill-rule="evenodd"/>
          </g>
        </g>
        <g id="Group_141" data-name="Group 141" transform="translate(22082.418 4944.168)">
          <g id="Group_140" data-name="Group 140">
            <g id="Group_139" data-name="Group 139">
              <path id="Path_34" data-name="Path 34" d="M793.339,1032.825a18.254,18.254,0,0,1,3.923.383,8.628,8.628,0,0,1,3.041,1.239,5.783,5.783,0,0,1,1.962,2.3,8.114,8.114,0,0,1,.686,3.53,6.6,6.6,0,0,1-1.031,3.79,7.475,7.475,0,0,1-3.073,2.483,7.171,7.171,0,0,1,4.131,2.8,9.27,9.27,0,0,1,.484,8.772,7.67,7.67,0,0,1-2.382,2.722,10.388,10.388,0,0,1-3.424,1.558,15.348,15.348,0,0,1-3.934.505H779.14V1032.82h14.2Zm-.861,12.153a4.753,4.753,0,0,0,2.913-.845,3.168,3.168,0,0,0,1.132-2.738,3.6,3.6,0,0,0-.367-1.728,2.724,2.724,0,0,0-1.021-1.047,4.164,4.164,0,0,0-1.457-.526,8.923,8.923,0,0,0-1.7-.149h-6.2v7.028h6.7Zm.367,12.807a8.319,8.319,0,0,0,1.855-.191,4.424,4.424,0,0,0,1.563-.638,3.244,3.244,0,0,0,1.079-1.2,4.19,4.19,0,0,0,.393-1.951,3.917,3.917,0,0,0-1.3-3.317,5.577,5.577,0,0,0-3.455-.989h-7.2v8.282h7.07Z" transform="translate(-779.14 -1032.82)" fill="#f6b32f"/>
              <path id="Path_35" data-name="Path 35" d="M837.715,1064.456a6.1,6.1,0,0,0,7,.4,3.858,3.858,0,0,0,1.6-1.93h5.268a9.983,9.983,0,0,1-3.886,5.619,11.294,11.294,0,0,1-6.3,1.7,12.536,12.536,0,0,1-4.646-.824,9.909,9.909,0,0,1-3.519-2.339,10.659,10.659,0,0,1-2.212-3.631,13.286,13.286,0,0,1-.781-4.641,12.789,12.789,0,0,1,.8-4.556,10.735,10.735,0,0,1,2.281-3.652,10.868,10.868,0,0,1,3.53-2.429,11.33,11.33,0,0,1,4.545-.888,10.325,10.325,0,0,1,4.843,1.079,9.681,9.681,0,0,1,3.4,2.887,11.766,11.766,0,0,1,1.914,4.136,15.393,15.393,0,0,1,.415,4.848h-15.72A6.092,6.092,0,0,0,837.715,1064.456Zm6.874-11.446a4.478,4.478,0,0,0-3.386-1.212,5.12,5.12,0,0,0-2.382.489,4.859,4.859,0,0,0-1.515,1.2,4.27,4.27,0,0,0-.8,1.536,6.671,6.671,0,0,0-.271,1.435h9.734A5.8,5.8,0,0,0,844.589,1053.011Z" transform="translate(-803.07 -1039.593)" fill="#f6b32f"/>
              <rect id="Rectangle_37" data-name="Rectangle 37" width="12.195" height="2.972" transform="translate(31.939 2.02)" fill="#f6b32f"/>
            </g>
          </g>
        </g>
        <path id="Path_37" data-name="Path 37" d="M152.661,266.557l1.59-10.372H144.3v-6.73c0-2.839,1.393-5.6,5.848-5.6h4.524v-8.83a55.071,55.071,0,0,0-8.033-.7c-8.2,0-13.556,4.965-13.556,13.96v7.905H123.97v10.372h9.112v25.076a36.3,36.3,0,0,0,11.217,0V266.557h8.362Z" transform="translate(22819.793 4702.931)" fill="#f6b32f"/>
        <path id="Path_38" data-name="Path 38" d="M633.725,720.96c-14.479,0-26.185,12.185-26.185,27.256a27.181,27.181,0,0,0,17.906,25.857,1.312,1.312,0,0,0,1.775-1.308c0-.633-.041-2.8-.041-5.056-7.286,1.627-8.8-3.248-8.8-3.248-1.168-3.158-2.907-3.971-2.907-3.971-2.382-1.669.175-1.669.175-1.669a5.519,5.519,0,0,1,4.034,2.8c2.341,4.152,6.113,2.977,7.631,2.254a5.875,5.875,0,0,1,1.647-3.652c-5.809-.633-11.922-2.977-11.922-13.444a10.873,10.873,0,0,1,2.686-7.31,10.211,10.211,0,0,1,.262-7.219s2.213-.723,7.2,2.8a24.592,24.592,0,0,1,6.545-.9,24.25,24.25,0,0,1,6.545.9c4.986-3.519,7.2-2.8,7.2-2.8a10.243,10.243,0,0,1,.262,7.219,10.649,10.649,0,0,1,2.686,7.31c0,10.467-6.113,12.769-11.963,13.444.952.856,1.775,2.483,1.775,5.056,0,3.657-.041,6.587-.041,7.49a1.313,1.313,0,0,0,1.775,1.308,27.176,27.176,0,0,0,17.906-25.857C659.91,733.145,648.163,720.96,633.725,720.96Z" transform="translate(21792.625 4211.959)" fill="#f6b32f" fill-rule="evenodd"/>
      </g>
    </g>
  </g>
</svg>
