<svg xmlns="http://www.w3.org/2000/svg" width="309" height="81" viewBox="0 0 309 81"><g transform="translate(-141 -70)"><text transform="translate(141 136)" font-size="70" font-family="GumelaRegular, Gumela" letter-spacing="0.05em"><tspan x="0" y="0">Het Patel</tspan></text><path d="M300.4-54.246v42.332a13.918,13.918,0,0,0,1.375,6.12,3.878,3.878,0,0,0,2.8,2.419,3.148,3.148,0,0,1,2.345,1.3,2.1,2.1,0,0,1-.353,2.792,3.07,3.07,0,0,1-2.134.779c-4.194,0-7.5-1.073-9.829-3.19-2.37-2.154-3.571-5.236-3.571-9.16V-47.18a6.157,6.157,0,0,1,.886-3.269,5.927,5.927,0,0,1,2.16-2.137,12.721,12.721,0,0,1,2.144-.952,9.331,9.331,0,0,1,1.884-.453Zm.684,52.44a8.571,8.571,0,0,1-1.979-2.62,16.879,16.879,0,0,1-1.7-7.447V-50.766l-.231.074a9.713,9.713,0,0,0-1.636.728,2.94,2.94,0,0,0-1.06,1.083,3.162,3.162,0,0,0-.444,1.7v36.33c0,3.086.847,5.356,2.589,6.94A9.191,9.191,0,0,0,301.084-1.806ZM10.67-51.46v20.28H31.05V-44.59a5.566,5.566,0,0,1,1.722-4.181,9.072,9.072,0,0,1,4.5-2.115,7.748,7.748,0,0,1,1.652-.245h1.5V-4.97A5.723,5.723,0,0,1,39.564-1.9,5.541,5.541,0,0,1,37.405.142a12.282,12.282,0,0,1-2.154.877,10.5,10.5,0,0,1-1.916.4l-2.285.254v-24.4H10.67V-4.97a5.554,5.554,0,0,1-.91,3.1,5.883,5.883,0,0,1-2.119,2,11.3,11.3,0,0,1-2.14.887,10.5,10.5,0,0,1-1.916.4L1.3,1.676V-44.59a5.689,5.689,0,0,1,.484-2.371,5.553,5.553,0,0,1,1.25-1.769A7.732,7.732,0,0,1,4.6-49.859a7.552,7.552,0,0,1,1.706-.7c.447-.118.865-.225,1.243-.32a5.775,5.775,0,0,1,1.1-.181ZM34.05-1.76q.169-.044.349-.1a9.277,9.277,0,0,0,1.626-.663,2.553,2.553,0,0,0,.991-.964,2.731,2.731,0,0,0,.4-1.484V-47.843c-2.974.743-3.37,2.119-3.37,3.253v16.41H7.67V-47.811l-.6.157a4.561,4.561,0,0,0-1.024.424,4.729,4.729,0,0,0-.957.69,2.538,2.538,0,0,0-.57.821A2.724,2.724,0,0,0,4.3-44.59V-1.76q.169-.044.349-.1a8.292,8.292,0,0,0,1.57-.653A2.892,2.892,0,0,0,7.25-3.517,2.569,2.569,0,0,0,7.67-4.97V-25.72H34.05Zm124.5-49.37a20.386,20.386,0,0,1,6.459,1.022,18.4,18.4,0,0,1,5.562,2.973,14.46,14.46,0,0,1,4.062,5.108,15.576,15.576,0,0,1,1.517,6.887,19.337,19.337,0,0,1-.956,6.261,15.207,15.207,0,0,1-2.383,4.581,14.093,14.093,0,0,1-3.522,3.1,19.447,19.447,0,0,1-3.762,1.894,21.5,21.5,0,0,1-3.878.944,29.386,29.386,0,0,1-3.186.367c-.668.024-1.416.036-2.224.036h-5.57V-4.97a5.723,5.723,0,0,1-.856,3.066A5.54,5.54,0,0,1,147.655.142a12.283,12.283,0,0,1-2.154.877,10.5,10.5,0,0,1-1.916.4l-2.285.254V-39.97a3.89,3.89,0,0,1,1.825-3.255,14.975,14.975,0,0,1,3.073-1.637,3.809,3.809,0,0,0,1.311-.71l.018-.027.027-.036A13.181,13.181,0,0,1,158.55-51.13Zm-2.31,30.17c.772,0,1.484-.011,2.116-.034a27.247,27.247,0,0,0,2.834-.333,18.513,18.513,0,0,0,3.332-.806,16.493,16.493,0,0,0,3.168-1.606,11.105,11.105,0,0,0,2.778-2.433,12.267,12.267,0,0,0,1.887-3.679,16.362,16.362,0,0,0,.794-5.289,12.607,12.607,0,0,0-1.213-5.573,11.488,11.488,0,0,0-3.218-4.062,15.409,15.409,0,0,0-4.658-2.487,17.392,17.392,0,0,0-5.511-.868,10.185,10.185,0,0,0-8.583,4.278,5.667,5.667,0,0,1-2.655,1.775,11.986,11.986,0,0,0-2.457,1.3c-.555.392-.555.681-.555.8V-1.76q.169-.044.349-.1a9.277,9.277,0,0,0,1.626-.663,2.553,2.553,0,0,0,.991-.964,2.731,2.731,0,0,0,.4-1.484V-20.96ZM93.49-46.79h1.5a3.713,3.713,0,0,1,.527.05c.126.018.368.058,1.007.192a11.475,11.475,0,0,1,1.45.4,9.691,9.691,0,0,1,1.575.742,7.449,7.449,0,0,1,1.576,1.187,6.148,6.148,0,0,1,1.213,1.8,5.991,5.991,0,0,1,.521,2.515v1.291l11.2-.07v1.859a4.818,4.818,0,0,1-.185,1.134c-.1.409-.219.811-.347,1.2a8.45,8.45,0,0,1-.637,1.409,6.376,6.376,0,0,1-1.056,1.417,5.248,5.248,0,0,1-1.66,1.088,5.465,5.465,0,0,1-2.166.436h-5.15V-11.2c0,.053,0,.183.029.459a8.26,8.26,0,0,0,.267,1.137,5.086,5.086,0,0,0,.59,1.379,3.1,3.1,0,0,0,1.063.908,3.5,3.5,0,0,0,1.8.427,7.064,7.064,0,0,0,2.558-.383,13.368,13.368,0,0,0,2.588-1.506,4,4,0,0,1,2.311-.933,2.153,2.153,0,0,1,1.875,1.057,2.525,2.525,0,0,1,.232,2.13,4.188,4.188,0,0,1-1.082,1.635,34.5,34.5,0,0,1-5.16,4.14A11.393,11.393,0,0,1,103.74,1.5a10.245,10.245,0,0,1-3.075-.454,7.883,7.883,0,0,1-2.546-1.3,10.726,10.726,0,0,1-1.75-1.75A10.217,10.217,0,0,1,95.1-4.061a19.621,19.621,0,0,1-.8-2.009,13.37,13.37,0,0,1-.512-2.013c-.1-.583-.172-1.105-.221-1.551a11.151,11.151,0,0,1-.079-1.216V-30.14h-6.3v-1.5a4.875,4.875,0,0,1,.094-.863c.058-.317.181-.79.388-1.488a8.648,8.648,0,0,1,.852-1.991,5.558,5.558,0,0,1,1.852-1.793A5.417,5.417,0,0,1,93.31-38.6h.18Zm6.37,11.2V-39.9a2.982,2.982,0,0,0-.249-1.265A3.191,3.191,0,0,0,99-42.094a4.461,4.461,0,0,0-.944-.7,6.883,6.883,0,0,0-1.085-.518q-.234-.083-.486-.154V-35.6H93.31a2.432,2.432,0,0,0-1.336.364,2.7,2.7,0,0,0-.878.8,5.665,5.665,0,0,0-.548,1.3H96.49v22.29a8.414,8.414,0,0,0,.061.884c.044.392.11.859.2,1.389a10.371,10.371,0,0,0,.4,1.557,16.6,16.6,0,0,0,.674,1.7,7.218,7.218,0,0,0,.9,1.448,7.727,7.727,0,0,0,1.26,1.26,4.914,4.914,0,0,0,1.584.8,7.253,7.253,0,0,0,2.175.316,8.558,8.558,0,0,0,4.52-1.741q.8-.534,1.52-1.068a10.58,10.58,0,0,1-3.17.419,6.5,6.5,0,0,1-3.308-.833,5.957,5.957,0,0,1-2.087-1.892,8.07,8.07,0,0,1-.951-2.191,9.69,9.69,0,0,1-.363-1.663c-.028-.305-.041-.544-.041-.731V-33.14h8.15a2.45,2.45,0,0,0,.984-.194,2.3,2.3,0,0,0,.72-.452,3.387,3.387,0,0,0,.554-.753,5.484,5.484,0,0,0,.413-.9q.036-.108.071-.219Zm122.99-11.2h1.5a3.713,3.713,0,0,1,.527.05c.126.018.368.058,1.007.192a11.475,11.475,0,0,1,1.45.4,9.691,9.691,0,0,1,1.575.742,7.449,7.449,0,0,1,1.576,1.187,6.148,6.148,0,0,1,1.213,1.8,5.992,5.992,0,0,1,.521,2.515v1.291l11.2-.07v1.859a4.819,4.819,0,0,1-.185,1.134c-.1.409-.219.811-.347,1.2a8.45,8.45,0,0,1-.637,1.409,6.378,6.378,0,0,1-1.056,1.417,5.249,5.249,0,0,1-1.66,1.088,5.465,5.465,0,0,1-2.166.436h-5.15V-11.2c0,.053,0,.183.029.459a8.294,8.294,0,0,0,.267,1.137,5.086,5.086,0,0,0,.59,1.379,3.1,3.1,0,0,0,1.063.908,3.5,3.5,0,0,0,1.8.427,7.064,7.064,0,0,0,2.558-.383,13.37,13.37,0,0,0,2.587-1.506,4,4,0,0,1,2.311-.933A2.153,2.153,0,0,1,245.3-8.655a2.525,2.525,0,0,1,.232,2.13,4.188,4.188,0,0,1-1.082,1.635,34.5,34.5,0,0,1-5.16,4.14A11.393,11.393,0,0,1,233.1,1.5a10.245,10.245,0,0,1-3.075-.454,7.883,7.883,0,0,1-2.546-1.3,10.727,10.727,0,0,1-1.75-1.75,10.217,10.217,0,0,1-1.271-2.052,19.621,19.621,0,0,1-.8-2.009,13.365,13.365,0,0,1-.512-2.013c-.1-.584-.172-1.106-.221-1.551a11.171,11.171,0,0,1-.079-1.216V-30.14h-6.3v-1.5a4.874,4.874,0,0,1,.094-.863c.058-.317.181-.79.388-1.488a8.647,8.647,0,0,1,.852-1.991,5.558,5.558,0,0,1,1.852-1.793,5.417,5.417,0,0,1,2.934-.826h.18Zm6.37,11.2V-39.9a2.982,2.982,0,0,0-.249-1.265,3.191,3.191,0,0,0-.607-.929,4.461,4.461,0,0,0-.944-.7,6.88,6.88,0,0,0-1.085-.518q-.234-.083-.486-.153V-35.6h-3.18a2.432,2.432,0,0,0-1.336.364,2.7,2.7,0,0,0-.878.8,5.666,5.666,0,0,0-.548,1.3h5.941v22.29a8.417,8.417,0,0,0,.061.884c.043.391.11.858.2,1.389a10.366,10.366,0,0,0,.4,1.557,16.6,16.6,0,0,0,.674,1.7,7.219,7.219,0,0,0,.9,1.448,7.727,7.727,0,0,0,1.26,1.26,4.914,4.914,0,0,0,1.584.8A7.253,7.253,0,0,0,233.1-1.5a8.558,8.558,0,0,0,4.52-1.741q.8-.534,1.52-1.068a10.58,10.58,0,0,1-3.17.419,6.5,6.5,0,0,1-3.308-.833,5.956,5.956,0,0,1-2.087-1.892,8.071,8.071,0,0,1-.951-2.191,9.691,9.691,0,0,1-.363-1.663c-.028-.3-.041-.544-.041-.731V-33.14h8.15a2.45,2.45,0,0,0,.984-.194,2.3,2.3,0,0,0,.72-.452,3.388,3.388,0,0,0,.554-.753,5.483,5.483,0,0,0,.413-.9q.036-.108.071-.219ZM158.69-45.67a11.369,11.369,0,0,1,7.634,2.923,10.47,10.47,0,0,1,3.456,8.307,10.14,10.14,0,0,1-3.566,8.031c-2.3,1.983-5.468,2.989-9.414,2.989h-9.13V-35.84a10.712,10.712,0,0,1,.658-3.824,8.176,8.176,0,0,1,1.811-2.907,9.8,9.8,0,0,1,2.56-1.821,11.244,11.244,0,0,1,2.989-1.009A16.612,16.612,0,0,1,158.69-45.67ZM156.8-26.42c3.207,0,5.715-.761,7.456-2.261a7.168,7.168,0,0,0,2.524-5.759,7.51,7.51,0,0,0-2.424-6.043,8.34,8.34,0,0,0-5.666-2.187,13.6,13.6,0,0,0-2.458.22,8.246,8.246,0,0,0-2.191.741,6.811,6.811,0,0,0-1.78,1.259,5.221,5.221,0,0,0-1.129,1.853,7.736,7.736,0,0,0-.462,2.756v9.42Zm40.6-12.25a18.526,18.526,0,0,1,4.229.46,13.473,13.473,0,0,1,3.94,1.651,11.742,11.742,0,0,1,3.328,3.048,14.545,14.545,0,0,1,2.162,4.682,23.436,23.436,0,0,1,.792,6.36V-9.59a4.332,4.332,0,0,1-1.773,3.663,11.5,11.5,0,0,1-3.138,1.575,3.364,3.364,0,0,0-1.357.655l0,.006A12.8,12.8,0,0,1,200.393.229a15.564,15.564,0,0,1-6,1.271,14.156,14.156,0,0,1-3.017-.35,15.734,15.734,0,0,1-3.488-1.273,13.274,13.274,0,0,1-3.432-2.407,11.812,11.812,0,0,1-2.58-4,14.373,14.373,0,0,1-1.023-5.507,13.936,13.936,0,0,1,4.079-10.231c2.707-2.707,6.549-4.079,11.421-4.079a31.974,31.974,0,0,1,5.835.91,7.183,7.183,0,0,0-1.57-2.9,5.611,5.611,0,0,0-4.454-1.872,13.2,13.2,0,0,0-3.969.685,22.233,22.233,0,0,0-4.474,2.362l-.031.02a2.744,2.744,0,0,1-1.453.458,2.136,2.136,0,0,1-1.958-1.325l-.042-.092-.029-.1a2.947,2.947,0,0,1,.817-2.91l.011-.012a31.058,31.058,0,0,1,6.363-5.259C193.876-37.921,195.84-38.67,197.4-38.67Zm5.82,33.124a5.634,5.634,0,0,1,2.77-1.652,8.519,8.519,0,0,0,2.322-1.155,1.338,1.338,0,0,0,.537-1.237V-22.47a20.467,20.467,0,0,0-.678-5.541,11.612,11.612,0,0,0-1.688-3.718A8.757,8.757,0,0,0,204-34a10.483,10.483,0,0,0-3.06-1.289,15.532,15.532,0,0,0-3.541-.38c-.546,0-1.847.239-4.424,1.839a27.4,27.4,0,0,0-2.492,1.748q.366-.151.714-.273a16.2,16.2,0,0,1,4.9-.854h.043a8.569,8.569,0,0,1,6.725,2.888,10.561,10.561,0,0,1,2.614,6.741l.079,1.946-1.9-.42a46.05,46.05,0,0,0-7.306-1.295c-4.047,0-7.176,1.077-9.3,3.2a10.9,10.9,0,0,0-3.2,8.109,11.4,11.4,0,0,0,.8,4.363,8.868,8.868,0,0,0,1.9,3A10.279,10.279,0,0,0,189.2-2.817a12.769,12.769,0,0,0,2.812,1.037,11.164,11.164,0,0,0,2.373.28,12.588,12.588,0,0,0,4.847-1.039A9.7,9.7,0,0,0,203.22-5.546ZM67.13-38.6a17.078,17.078,0,0,1,6.788,1.312A13.237,13.237,0,0,1,79-33.536,21.668,21.668,0,0,1,82.084-28.5,24.619,24.619,0,0,1,83.8-22.578a5.712,5.712,0,0,1-2.365,5.656,9.089,9.089,0,0,1-4.426,2.244l-18.28,1.828a11.776,11.776,0,0,0,2.989,3.785,8.457,8.457,0,0,0,5.358,2.1A11.341,11.341,0,0,0,70.986-7.6a24.091,24.091,0,0,0,4.434-2.34l.023-.015a2.8,2.8,0,0,1,1.466-.458,2.215,2.215,0,0,1,1.967,1.228l.029.053.025.056a2.742,2.742,0,0,1-.755,3.093l-.032.034A34.663,34.663,0,0,1,71.777-.795C69.317.749,67.339,1.5,65.73,1.5A13.389,13.389,0,0,1,62.413,1a20.848,20.848,0,0,1-4.5-1.88,21.394,21.394,0,0,1-4.743-3.462,17.033,17.033,0,0,1-3.74-5.828,21.14,21.14,0,0,1-1.513-8.1,20.17,20.17,0,0,1,5.694-14.26A18.071,18.071,0,0,1,67.13-38.6ZM67.06-3.96h-.031a11.5,11.5,0,0,1-7.227-2.8,15.244,15.244,0,0,1-4.66-6.895l-.62-1.793,22.188-2.219a6.363,6.363,0,0,0,2.854-1.606,2.775,2.775,0,0,0,1.276-2.808l0-.012a21.625,21.625,0,0,0-1.5-5.2,18.667,18.667,0,0,0-2.656-4.341,10.27,10.27,0,0,0-3.948-2.9,14.105,14.105,0,0,0-5.6-1.068A14.987,14.987,0,0,0,55.8-30.47a17.038,17.038,0,0,0-4.876,12.2,18.162,18.162,0,0,0,1.287,6.953A14.1,14.1,0,0,0,55.257-6.5a18.393,18.393,0,0,0,4.077,2.978,18.251,18.251,0,0,0,3.834,1.62A10.691,10.691,0,0,0,65.73-1.5c.7,0,2.036-.318,4.453-1.836q1.229-.771,2.4-1.669-.283.117-.555.217A14.329,14.329,0,0,1,67.06-3.96ZM268.17-38.6a17.079,17.079,0,0,1,6.788,1.312,13.237,13.237,0,0,1,5.082,3.752,21.668,21.668,0,0,1,3.084,5.039,24.619,24.619,0,0,1,1.716,5.92,5.711,5.711,0,0,1-2.365,5.655,9.088,9.088,0,0,1-4.426,2.244l-18.28,1.828a11.776,11.776,0,0,0,2.989,3.785,8.457,8.457,0,0,0,5.358,2.1,11.341,11.341,0,0,0,3.911-.642,24.091,24.091,0,0,0,4.434-2.34l.023-.015a2.8,2.8,0,0,1,1.466-.458,2.215,2.215,0,0,1,1.967,1.228l.029.053.025.056a2.742,2.742,0,0,1-.755,3.093l-.032.034a34.663,34.663,0,0,1-6.366,5.158C270.358.749,268.379,1.5,266.77,1.5a13.39,13.39,0,0,1-3.317-.5,20.846,20.846,0,0,1-4.5-1.88,21.394,21.394,0,0,1-4.743-3.462,17.033,17.033,0,0,1-3.74-5.828,21.139,21.139,0,0,1-1.513-8.1,20.17,20.17,0,0,1,5.694-14.26A18.07,18.07,0,0,1,268.17-38.6ZM268.1-3.96h-.031a11.5,11.5,0,0,1-7.227-2.8,15.243,15.243,0,0,1-4.66-6.895l-.62-1.793,22.188-2.219a6.363,6.363,0,0,0,2.854-1.606,2.775,2.775,0,0,0,1.276-2.808l0-.012a21.628,21.628,0,0,0-1.5-5.2,18.667,18.667,0,0,0-2.656-4.341,10.27,10.27,0,0,0-3.948-2.9,14.105,14.105,0,0,0-5.6-1.068,14.987,14.987,0,0,0-11.334,5.13,17.038,17.038,0,0,0-4.876,12.2,18.161,18.161,0,0,0,1.287,6.953A14.1,14.1,0,0,0,256.3-6.5a18.394,18.394,0,0,0,4.077,2.978,18.248,18.248,0,0,0,3.834,1.62,10.692,10.692,0,0,0,2.563.407c.7,0,2.036-.318,4.453-1.835q1.229-.771,2.4-1.669-.284.117-.555.217A14.329,14.329,0,0,1,268.1-3.96ZM66.555-33.136a10.08,10.08,0,0,1,6.858,2.722A11.261,11.261,0,0,1,77.17-21.63v1.35L54.235-17.857l.055-1.721a15.035,15.035,0,0,1,3.064-8.692,11.419,11.419,0,0,1,7.358-4.71A11.244,11.244,0,0,1,66.555-33.136Zm7.537,10.164a7.971,7.971,0,0,0-2.676-5.2,7.074,7.074,0,0,0-4.861-1.96,8.239,8.239,0,0,0-1.349.116,8.411,8.411,0,0,0-5.452,3.55,11.928,11.928,0,0,0-2.295,5.255ZM267.6-33.136a10.08,10.08,0,0,1,6.858,2.722,11.261,11.261,0,0,1,3.756,8.784v1.35l-22.935,2.423.055-1.721a15.035,15.035,0,0,1,3.064-8.692,11.419,11.419,0,0,1,7.358-4.71A11.244,11.244,0,0,1,267.6-33.136Zm7.537,10.164a7.971,7.971,0,0,0-2.676-5.2,7.074,7.074,0,0,0-4.861-1.96,8.239,8.239,0,0,0-1.349.116,8.411,8.411,0,0,0-5.452,3.55,11.928,11.928,0,0,0-2.295,5.255Zm-78.257,2.119a36.908,36.908,0,0,1,7.418.976l1.187.253v8a5.835,5.835,0,0,1-1.814,4.045,11.672,11.672,0,0,1-3.811,2.65,10.433,10.433,0,0,1-4.135.965A8.347,8.347,0,0,1,189.5-6.3a8.086,8.086,0,0,1-2.284-5.881,7.842,7.842,0,0,1,2.706-6.329,9.766,9.766,0,0,1,5.911-2.308C196.162-20.841,196.511-20.853,196.875-20.853Zm5.6,3.668a30.9,30.9,0,0,0-5.6-.668c-.3,0-.577.01-.833.029l-.039,0a6.742,6.742,0,0,0-4.149,1.611,4.921,4.921,0,0,0-1.634,4.031A5.121,5.121,0,0,0,191.646-8.4,5.408,5.408,0,0,0,195.72-6.96a7.5,7.5,0,0,0,2.935-.715,8.689,8.689,0,0,0,2.839-1.97,2.943,2.943,0,0,0,.986-1.976Z" transform="translate(141 136)"/></g></svg>