<svg xmlns="http://www.w3.org/2000/svg" width="21.122" height="19.01" viewBox="0 0 21.122 19.01">
  <path id="Path_19" data-name="Path 19" d="M14.561,10.224V6H4V25.01H25.122V10.224ZM8.224,22.9H6.112V20.786H8.224Zm0-4.224H6.112V16.561H8.224Zm0-4.224H6.112V12.337H8.224Zm0-4.224H6.112V8.112H8.224ZM12.449,22.9H10.337V20.786h2.112Zm0-4.224H10.337V16.561h2.112Zm0-4.224H10.337V12.337h2.112Zm0-4.224H10.337V8.112h2.112ZM23.01,22.9H14.561V20.786h2.112V18.673H14.561V16.561h2.112V14.449H14.561V12.337H23.01ZM20.9,14.449H18.786v2.112H20.9Zm0,4.224H18.786v2.112H20.9Z" transform="translate(-4 -6)" fill="#fca318"/>
</svg>
